<svg width="75" height="68"  className="css-1j8o68f">
    <defs id="SvgjsDefs4898"></defs>
    <g id="SvgjsG4899" transform="matrix(0.85,0,0,0.85,0,0)" fill="#ffffff">
        <rect width="88" height="79" rx="8"></rect>
    </g>
    <g id="SvgjsG4900" transform="matrix(1.107777474534938,0,0,1.107777474534938,8.62727882592198,-7.61666211802407)" fill="#8971d0">
        <path d="M46.08 15 q0.84 0 1.47 0.63 t0.63 1.47 l0 40.2 q0 0.84 -0.63 1.47 t-1.47 0.63 l-4.56 0 q-0.9 0 -1.5 -0.63 t-0.6 -1.47 l0 -27.12 l-11.1 14.28 q-0.66 0.78 -1.68 0.78 l0 0 q-0.48 0 -0.96 -0.21 t-0.72 -0.63 l-19.68 -26.04 q-0.36 -0.42 -0.42 -1.05 t0.24 -1.14 t0.78 -0.84 t1.08 -0.33 l5.28 0 q1.02 0 1.68 0.84 l12.72 16.8 l12.42 -16.8 q0.66 -0.84 1.74 -0.84 l5.28 0 z M11.52 44.1 q0.84 0 1.47 0.6 t0.63 1.5 l0 11.1 q0 0.84 -0.63 1.47 t-1.47 0.63 l-4.56 0 q-0.84 0 -1.47 -0.63 t-0.63 -1.47 l0 -11.1 q0 -0.9 0.63 -1.5 t1.47 -0.6 l4.56 0 z">
        </path>
    </g>
</svg>