<svg width="257.00999603271487" height="58.502444859650176" viewBox="0 0 295 67.14999999999999" class="css-1j8o68f"><defs id="SvgjsDefs4898"></defs><g id="SvgjsG4899" featurekey="symbolContainer" transform="matrix(0.85,0,0,0.85,0,0)" fill="#ffffff"><rect width="88" height="79" rx="8"></rect></g><g id="SvgjsG4900" featurekey="monogramFeature-0" transform="matrix(1.107777474534938,0,0,1.107777474534938,8.62727882592198,-7.61666211802407)" fill="#8971d0"><path d="M46.08 15 q0.84 0 1.47 0.63 t0.63 1.47 l0 40.2 q0 0.84 -0.63 1.47 t-1.47 0.63 l-4.56 0 q-0.9 0 -1.5 -0.63 t-0.6 -1.47 l0 -27.12 l-11.1 14.28 q-0.66 0.78 -1.68 0.78 l0 0 q-0.48 0 -0.96 -0.21 t-0.72 -0.63 l-19.68 -26.04 q-0.36 -0.42 -0.42 -1.05 t0.24 -1.14 t0.78 -0.84 t1.08 -0.33 l5.28 0 q1.02 0 1.68 0.84 l12.72 16.8 l12.42 -16.8 q0.66 -0.84 1.74 -0.84 l5.28 0 z M11.52 44.1 q0.84 0 1.47 0.6 t0.63 1.5 l0 11.1 q0 0.84 -0.63 1.47 t-1.47 0.63 l-4.56 0 q-0.84 0 -1.47 -0.63 t-0.63 -1.47 l0 -11.1 q0 -0.9 0.63 -1.5 t1.47 -0.6 l4.56 0 z"></path></g><g id="SvgjsG4901" featurekey="nameFeature-0" transform="matrix(1.9054878214989157,0,0,1.9054878214989157,90.42682632085894,-16.33231595957264)" fill="#ffffff"><path d="M32.4 12 l0 28 l-6 0 l0 -14.88 l-6.52 14.88 l-5.04 0 l-6.44 -14.8 l0 14.8 l-6 0 l0 -28 l5.76 0 l9.24 20.2 l9.24 -20.2 l5.76 0 z M52.24000000000001 19.2 l5.72 0 l0 20.8 l-5.72 0 l0 -2.56 c-0.12 0.84 -2.16 2.96 -5.76 2.96 c-4.76 0 -10.28 -3.44 -10.28 -10.84 c0 -7.16 5.52 -10.72 10.28 -10.72 c3.6 0 5.64 2.24 5.76 2.68 l0 -2.32 z M47.28 35.32 c2.8 0 5.24 -1.92 5.24 -5.76 c0 -3.72 -2.44 -5.64 -5.24 -5.64 c-2.88 0 -5.52 1.96 -5.52 5.64 c0 3.8 2.64 5.76 5.52 5.76 z M74.48 18.88 c3.96 0 7.88 2.6 7.88 9.16 l0 11.96 l-5.72 0 l0 -11.56 c0 -3.4 -1.32 -4.56 -3.52 -4.56 c-3.04 0 -4.84 2.88 -5.28 4.32 l0 11.8 l-5.72 0 l0 -28.28 l5.72 0 l0 11.32 c0.4 -1.08 2.64 -4.16 6.64 -4.16 z M104.04 12 l0 4.72 l-15.12 0 l0 -4.72 l15.12 0 z M96.48000000000002 18.84 c4.72 0 10.88 3.56 10.88 10.84 s-6.16 10.72 -10.88 10.72 s-10.92 -3.44 -10.92 -10.72 s6.2 -10.84 10.92 -10.84 z M96.48000000000002 23.92 c-2.6 0 -5.36 1.96 -5.36 5.76 c0 3.68 2.76 5.64 5.36 5.64 c2.56 0 5.36 -1.96 5.36 -5.64 c0 -3.8 -2.8 -5.76 -5.36 -5.76 z"></path></g></svg>